<mxfile host="Electron" modified="2024-04-01T12:17:17.868Z" agent="Mozilla/5.0 (Macintosh; Intel Mac OS X 10_15_7) AppleWebKit/537.36 (KHTML, like Gecko) draw.io/24.1.0 Chrome/120.0.6099.109 Electron/28.1.0 Safari/537.36" etag="MdspDMdIl2uFWTA88iXm" version="24.1.0" type="device" pages="3">
  <diagram name="Usecase" id="KDcArEBzNloyeG0T7Ol2">
    <mxGraphModel dx="1242" dy="907" grid="1" gridSize="10" guides="1" tooltips="1" connect="1" arrows="1" fold="1" page="1" pageScale="1" pageWidth="827" pageHeight="1169" math="0" shadow="0">
      <root>
        <mxCell id="0" />
        <mxCell id="1" parent="0" />
        <mxCell id="-6qppRva0K9xcJfEXTxW-1" value="Admin" style="shape=umlActor;verticalLabelPosition=bottom;verticalAlign=top;html=1;outlineConnect=0;" vertex="1" parent="1">
          <mxGeometry x="23" y="300" width="30" height="60" as="geometry" />
        </mxCell>
        <mxCell id="-6qppRva0K9xcJfEXTxW-2" value="Log in, Log out" style="ellipse;whiteSpace=wrap;html=1;" vertex="1" parent="1">
          <mxGeometry x="373" y="60" width="200" height="40" as="geometry" />
        </mxCell>
        <mxCell id="-6qppRva0K9xcJfEXTxW-3" value="Maintaining" style="ellipse;whiteSpace=wrap;html=1;" vertex="1" parent="1">
          <mxGeometry x="373" y="140" width="200" height="40" as="geometry" />
        </mxCell>
        <mxCell id="-6qppRva0K9xcJfEXTxW-4" value="" style="endArrow=none;html=1;rounded=0;entryX=0;entryY=0.5;entryDx=0;entryDy=0;" edge="1" parent="1" target="-6qppRva0K9xcJfEXTxW-3">
          <mxGeometry width="50" height="50" relative="1" as="geometry">
            <mxPoint x="53" y="320" as="sourcePoint" />
            <mxPoint x="743" y="270" as="targetPoint" />
          </mxGeometry>
        </mxCell>
        <mxCell id="-6qppRva0K9xcJfEXTxW-5" value="" style="endArrow=none;html=1;rounded=0;entryX=0;entryY=0.5;entryDx=0;entryDy=0;" edge="1" parent="1" target="-6qppRva0K9xcJfEXTxW-2">
          <mxGeometry width="50" height="50" relative="1" as="geometry">
            <mxPoint x="53" y="320" as="sourcePoint" />
            <mxPoint x="743" y="270" as="targetPoint" />
          </mxGeometry>
        </mxCell>
        <mxCell id="-6qppRva0K9xcJfEXTxW-6" value="Search" style="ellipse;whiteSpace=wrap;html=1;" vertex="1" parent="1">
          <mxGeometry x="373" y="220" width="200" height="40" as="geometry" />
        </mxCell>
        <mxCell id="-6qppRva0K9xcJfEXTxW-7" value="" style="endArrow=none;html=1;rounded=0;entryX=0;entryY=0.5;entryDx=0;entryDy=0;" edge="1" parent="1" target="-6qppRva0K9xcJfEXTxW-6">
          <mxGeometry width="50" height="50" relative="1" as="geometry">
            <mxPoint x="53" y="320" as="sourcePoint" />
            <mxPoint x="743" y="270" as="targetPoint" />
          </mxGeometry>
        </mxCell>
        <mxCell id="-6qppRva0K9xcJfEXTxW-8" value="Monthly sell of policies" style="ellipse;whiteSpace=wrap;html=1;" vertex="1" parent="1">
          <mxGeometry x="373" y="300" width="200" height="40" as="geometry" />
        </mxCell>
        <mxCell id="-6qppRva0K9xcJfEXTxW-9" value="Vehicle wise analysis" style="ellipse;whiteSpace=wrap;html=1;" vertex="1" parent="1">
          <mxGeometry x="373" y="380" width="200" height="40" as="geometry" />
        </mxCell>
        <mxCell id="-6qppRva0K9xcJfEXTxW-10" value="Claims report" style="ellipse;whiteSpace=wrap;html=1;" vertex="1" parent="1">
          <mxGeometry x="373" y="460" width="200" height="40" as="geometry" />
        </mxCell>
        <mxCell id="-6qppRva0K9xcJfEXTxW-11" value="Policies due renewals" style="ellipse;whiteSpace=wrap;html=1;" vertex="1" parent="1">
          <mxGeometry x="373" y="540" width="200" height="40" as="geometry" />
        </mxCell>
        <mxCell id="-6qppRva0K9xcJfEXTxW-12" value="" style="endArrow=none;html=1;rounded=0;exitX=1;exitY=0.3333333333333333;exitDx=0;exitDy=0;exitPerimeter=0;" edge="1" parent="1" source="-6qppRva0K9xcJfEXTxW-1">
          <mxGeometry width="50" height="50" relative="1" as="geometry">
            <mxPoint x="693" y="320" as="sourcePoint" />
            <mxPoint x="373" y="320" as="targetPoint" />
          </mxGeometry>
        </mxCell>
        <mxCell id="-6qppRva0K9xcJfEXTxW-13" value="" style="endArrow=none;html=1;rounded=0;entryX=0;entryY=0.5;entryDx=0;entryDy=0;" edge="1" parent="1" target="-6qppRva0K9xcJfEXTxW-9">
          <mxGeometry width="50" height="50" relative="1" as="geometry">
            <mxPoint x="53" y="320" as="sourcePoint" />
            <mxPoint x="583" y="330" as="targetPoint" />
          </mxGeometry>
        </mxCell>
        <mxCell id="-6qppRva0K9xcJfEXTxW-14" value="" style="endArrow=none;html=1;rounded=0;entryX=0;entryY=0.5;entryDx=0;entryDy=0;" edge="1" parent="1" target="-6qppRva0K9xcJfEXTxW-10">
          <mxGeometry width="50" height="50" relative="1" as="geometry">
            <mxPoint x="53" y="320" as="sourcePoint" />
            <mxPoint x="583" y="410" as="targetPoint" />
          </mxGeometry>
        </mxCell>
        <mxCell id="-6qppRva0K9xcJfEXTxW-15" value="" style="endArrow=none;html=1;rounded=0;entryX=0;entryY=0.5;entryDx=0;entryDy=0;" edge="1" parent="1" target="-6qppRva0K9xcJfEXTxW-11">
          <mxGeometry width="50" height="50" relative="1" as="geometry">
            <mxPoint x="53" y="320" as="sourcePoint" />
            <mxPoint x="593" y="420" as="targetPoint" />
          </mxGeometry>
        </mxCell>
        <mxCell id="-6qppRva0K9xcJfEXTxW-16" value="Policies lapsed report" style="ellipse;whiteSpace=wrap;html=1;" vertex="1" parent="1">
          <mxGeometry x="373" y="620" width="200" height="40" as="geometry" />
        </mxCell>
        <mxCell id="-6qppRva0K9xcJfEXTxW-17" value="" style="endArrow=none;html=1;rounded=0;entryX=0;entryY=0.5;entryDx=0;entryDy=0;" edge="1" parent="1" target="-6qppRva0K9xcJfEXTxW-16">
          <mxGeometry width="50" height="50" relative="1" as="geometry">
            <mxPoint x="53" y="320" as="sourcePoint" />
            <mxPoint x="383" y="570" as="targetPoint" />
          </mxGeometry>
        </mxCell>
        <mxCell id="cOSHCvpIWSaV0GcZBz6L-1" value="Customer" style="shape=umlActor;verticalLabelPosition=bottom;verticalAlign=top;html=1;outlineConnect=0;" vertex="1" parent="1">
          <mxGeometry x="750" y="780" width="30" height="60" as="geometry" />
        </mxCell>
        <mxCell id="cOSHCvpIWSaV0GcZBz6L-5" value="Purchase the policy online" style="ellipse;whiteSpace=wrap;html=1;" vertex="1" parent="1">
          <mxGeometry x="372" y="700" width="200" height="40" as="geometry" />
        </mxCell>
        <mxCell id="cOSHCvpIWSaV0GcZBz6L-7" value="Payment" style="ellipse;whiteSpace=wrap;html=1;" vertex="1" parent="1">
          <mxGeometry x="372" y="780" width="200" height="40" as="geometry" />
        </mxCell>
        <mxCell id="cOSHCvpIWSaV0GcZBz6L-8" value="Initiate the claim" style="ellipse;whiteSpace=wrap;html=1;" vertex="1" parent="1">
          <mxGeometry x="372" y="860" width="200" height="40" as="geometry" />
        </mxCell>
        <mxCell id="cOSHCvpIWSaV0GcZBz6L-10" value="" style="endArrow=none;html=1;rounded=0;entryX=1;entryY=0.5;entryDx=0;entryDy=0;exitX=0;exitY=0.3333333333333333;exitDx=0;exitDy=0;exitPerimeter=0;" edge="1" parent="1" target="cOSHCvpIWSaV0GcZBz6L-7" source="cOSHCvpIWSaV0GcZBz6L-1">
          <mxGeometry width="50" height="50" relative="1" as="geometry">
            <mxPoint x="202" y="681" as="sourcePoint" />
            <mxPoint x="362" y="721" as="targetPoint" />
          </mxGeometry>
        </mxCell>
        <mxCell id="cOSHCvpIWSaV0GcZBz6L-11" value="" style="endArrow=none;html=1;rounded=0;entryX=1;entryY=0.5;entryDx=0;entryDy=0;" edge="1" parent="1" target="cOSHCvpIWSaV0GcZBz6L-8">
          <mxGeometry width="50" height="50" relative="1" as="geometry">
            <mxPoint x="740" y="800" as="sourcePoint" />
            <mxPoint x="260" y="671" as="targetPoint" />
          </mxGeometry>
        </mxCell>
        <mxCell id="cOSHCvpIWSaV0GcZBz6L-12" value="" style="endArrow=none;html=1;rounded=0;entryX=1;entryY=0.5;entryDx=0;entryDy=0;" edge="1" parent="1" target="cOSHCvpIWSaV0GcZBz6L-5">
          <mxGeometry width="50" height="50" relative="1" as="geometry">
            <mxPoint x="740" y="800" as="sourcePoint" />
            <mxPoint x="262" y="671" as="targetPoint" />
          </mxGeometry>
        </mxCell>
        <mxCell id="cOSHCvpIWSaV0GcZBz6L-16" value="" style="endArrow=none;html=1;rounded=0;exitX=1;exitY=0.5;exitDx=0;exitDy=0;" edge="1" parent="1" source="-6qppRva0K9xcJfEXTxW-2">
          <mxGeometry width="50" height="50" relative="1" as="geometry">
            <mxPoint x="583" y="250" as="sourcePoint" />
            <mxPoint x="740" y="800" as="targetPoint" />
          </mxGeometry>
        </mxCell>
      </root>
    </mxGraphModel>
  </diagram>
  <diagram id="kOfxL8k8121z8w6GwPz-" name="Admin">
    <mxGraphModel dx="1242" dy="907" grid="1" gridSize="10" guides="1" tooltips="1" connect="1" arrows="1" fold="1" page="1" pageScale="1" pageWidth="827" pageHeight="1169" math="0" shadow="0">
      <root>
        <mxCell id="0" />
        <mxCell id="1" parent="0" />
        <mxCell id="qHCSjhySUqU8QhIjOKXc-1" value="Admin" style="shape=umlActor;verticalLabelPosition=bottom;verticalAlign=top;html=1;outlineConnect=0;" parent="1" vertex="1">
          <mxGeometry x="90" y="300" width="30" height="60" as="geometry" />
        </mxCell>
        <mxCell id="qHCSjhySUqU8QhIjOKXc-2" value="Log in, Log out" style="ellipse;whiteSpace=wrap;html=1;" parent="1" vertex="1">
          <mxGeometry x="440" y="60" width="200" height="40" as="geometry" />
        </mxCell>
        <mxCell id="qHCSjhySUqU8QhIjOKXc-3" value="Maintaining" style="ellipse;whiteSpace=wrap;html=1;" parent="1" vertex="1">
          <mxGeometry x="440" y="140" width="200" height="40" as="geometry" />
        </mxCell>
        <mxCell id="qHCSjhySUqU8QhIjOKXc-4" value="" style="endArrow=none;html=1;rounded=0;entryX=0;entryY=0.5;entryDx=0;entryDy=0;" parent="1" target="qHCSjhySUqU8QhIjOKXc-3" edge="1">
          <mxGeometry width="50" height="50" relative="1" as="geometry">
            <mxPoint x="120" y="320" as="sourcePoint" />
            <mxPoint x="810" y="270" as="targetPoint" />
          </mxGeometry>
        </mxCell>
        <mxCell id="qHCSjhySUqU8QhIjOKXc-5" value="" style="endArrow=none;html=1;rounded=0;entryX=0;entryY=0.5;entryDx=0;entryDy=0;" parent="1" target="qHCSjhySUqU8QhIjOKXc-2" edge="1">
          <mxGeometry width="50" height="50" relative="1" as="geometry">
            <mxPoint x="120" y="320" as="sourcePoint" />
            <mxPoint x="810" y="270" as="targetPoint" />
          </mxGeometry>
        </mxCell>
        <mxCell id="qHCSjhySUqU8QhIjOKXc-6" value="Search" style="ellipse;whiteSpace=wrap;html=1;" parent="1" vertex="1">
          <mxGeometry x="440" y="220" width="200" height="40" as="geometry" />
        </mxCell>
        <mxCell id="qHCSjhySUqU8QhIjOKXc-7" value="" style="endArrow=none;html=1;rounded=0;entryX=0;entryY=0.5;entryDx=0;entryDy=0;" parent="1" target="qHCSjhySUqU8QhIjOKXc-6" edge="1">
          <mxGeometry width="50" height="50" relative="1" as="geometry">
            <mxPoint x="120" y="320" as="sourcePoint" />
            <mxPoint x="810" y="270" as="targetPoint" />
          </mxGeometry>
        </mxCell>
        <mxCell id="qHCSjhySUqU8QhIjOKXc-8" value="Monthly sell of policies" style="ellipse;whiteSpace=wrap;html=1;" parent="1" vertex="1">
          <mxGeometry x="440" y="300" width="200" height="40" as="geometry" />
        </mxCell>
        <mxCell id="qHCSjhySUqU8QhIjOKXc-9" value="Vehicle wise analysis" style="ellipse;whiteSpace=wrap;html=1;" parent="1" vertex="1">
          <mxGeometry x="440" y="380" width="200" height="40" as="geometry" />
        </mxCell>
        <mxCell id="qHCSjhySUqU8QhIjOKXc-10" value="Claims report" style="ellipse;whiteSpace=wrap;html=1;" parent="1" vertex="1">
          <mxGeometry x="440" y="460" width="200" height="40" as="geometry" />
        </mxCell>
        <mxCell id="qHCSjhySUqU8QhIjOKXc-11" value="Policies due renewals" style="ellipse;whiteSpace=wrap;html=1;" parent="1" vertex="1">
          <mxGeometry x="440" y="540" width="200" height="40" as="geometry" />
        </mxCell>
        <mxCell id="qHCSjhySUqU8QhIjOKXc-12" value="" style="endArrow=none;html=1;rounded=0;exitX=1;exitY=0.3333333333333333;exitDx=0;exitDy=0;exitPerimeter=0;" parent="1" source="qHCSjhySUqU8QhIjOKXc-1" edge="1">
          <mxGeometry width="50" height="50" relative="1" as="geometry">
            <mxPoint x="760" y="320" as="sourcePoint" />
            <mxPoint x="440" y="320" as="targetPoint" />
          </mxGeometry>
        </mxCell>
        <mxCell id="qHCSjhySUqU8QhIjOKXc-13" value="" style="endArrow=none;html=1;rounded=0;entryX=0;entryY=0.5;entryDx=0;entryDy=0;" parent="1" target="qHCSjhySUqU8QhIjOKXc-9" edge="1">
          <mxGeometry width="50" height="50" relative="1" as="geometry">
            <mxPoint x="120" y="320" as="sourcePoint" />
            <mxPoint x="650" y="330" as="targetPoint" />
          </mxGeometry>
        </mxCell>
        <mxCell id="qHCSjhySUqU8QhIjOKXc-14" value="" style="endArrow=none;html=1;rounded=0;entryX=0;entryY=0.5;entryDx=0;entryDy=0;" parent="1" target="qHCSjhySUqU8QhIjOKXc-10" edge="1">
          <mxGeometry width="50" height="50" relative="1" as="geometry">
            <mxPoint x="120" y="320" as="sourcePoint" />
            <mxPoint x="650" y="410" as="targetPoint" />
          </mxGeometry>
        </mxCell>
        <mxCell id="qHCSjhySUqU8QhIjOKXc-15" value="" style="endArrow=none;html=1;rounded=0;entryX=0;entryY=0.5;entryDx=0;entryDy=0;" parent="1" target="qHCSjhySUqU8QhIjOKXc-11" edge="1">
          <mxGeometry width="50" height="50" relative="1" as="geometry">
            <mxPoint x="120" y="320" as="sourcePoint" />
            <mxPoint x="660" y="420" as="targetPoint" />
          </mxGeometry>
        </mxCell>
        <mxCell id="Pjmvry9mE_pyg7sIZOCi-1" value="Policies lapsed report" style="ellipse;whiteSpace=wrap;html=1;" vertex="1" parent="1">
          <mxGeometry x="440" y="620" width="200" height="40" as="geometry" />
        </mxCell>
        <mxCell id="Pjmvry9mE_pyg7sIZOCi-2" value="" style="endArrow=none;html=1;rounded=0;entryX=0;entryY=0.5;entryDx=0;entryDy=0;" edge="1" parent="1" target="Pjmvry9mE_pyg7sIZOCi-1">
          <mxGeometry width="50" height="50" relative="1" as="geometry">
            <mxPoint x="120" y="320" as="sourcePoint" />
            <mxPoint x="450" y="570" as="targetPoint" />
          </mxGeometry>
        </mxCell>
      </root>
    </mxGraphModel>
  </diagram>
  <diagram id="YLPzBK1BF5T6Swi8qn4V" name="Customer">
    <mxGraphModel dx="1242" dy="907" grid="1" gridSize="10" guides="1" tooltips="1" connect="1" arrows="1" fold="1" page="1" pageScale="1" pageWidth="827" pageHeight="1169" math="0" shadow="0">
      <root>
        <mxCell id="0" />
        <mxCell id="1" parent="0" />
        <mxCell id="N3yQKXkswgoLwSjcVd0h-1" value="Customer" style="shape=umlActor;verticalLabelPosition=bottom;verticalAlign=top;html=1;outlineConnect=0;" parent="1" vertex="1">
          <mxGeometry x="130" y="380" width="30" height="60" as="geometry" />
        </mxCell>
        <mxCell id="N3yQKXkswgoLwSjcVd0h-7" value="Change password" style="ellipse;whiteSpace=wrap;html=1;" parent="1" vertex="1">
          <mxGeometry x="330" y="339" width="200" height="40" as="geometry" />
        </mxCell>
        <mxCell id="N3yQKXkswgoLwSjcVd0h-8" value="Log in, Log out" style="ellipse;whiteSpace=wrap;html=1;" parent="1" vertex="1">
          <mxGeometry x="330" y="259" width="200" height="40" as="geometry" />
        </mxCell>
        <mxCell id="N3yQKXkswgoLwSjcVd0h-9" value="" style="endArrow=none;html=1;rounded=0;entryX=0;entryY=0.5;entryDx=0;entryDy=0;exitX=1;exitY=0.3333333333333333;exitDx=0;exitDy=0;exitPerimeter=0;" parent="1" source="N3yQKXkswgoLwSjcVd0h-1" target="N3yQKXkswgoLwSjcVd0h-8" edge="1">
          <mxGeometry width="50" height="50" relative="1" as="geometry">
            <mxPoint x="168" y="200" as="sourcePoint" />
            <mxPoint x="448" y="180" as="targetPoint" />
          </mxGeometry>
        </mxCell>
        <mxCell id="N3yQKXkswgoLwSjcVd0h-10" value="Purchase the policy online" style="ellipse;whiteSpace=wrap;html=1;" parent="1" vertex="1">
          <mxGeometry x="330" y="419" width="200" height="40" as="geometry" />
        </mxCell>
        <mxCell id="N3yQKXkswgoLwSjcVd0h-11" value="Register" style="ellipse;whiteSpace=wrap;html=1;" parent="1" vertex="1">
          <mxGeometry x="330" y="179" width="200" height="40" as="geometry" />
        </mxCell>
        <mxCell id="N3yQKXkswgoLwSjcVd0h-12" value="Payment" style="ellipse;whiteSpace=wrap;html=1;" parent="1" vertex="1">
          <mxGeometry x="330" y="499" width="200" height="40" as="geometry" />
        </mxCell>
        <mxCell id="N3yQKXkswgoLwSjcVd0h-13" value="Initiate the claim" style="ellipse;whiteSpace=wrap;html=1;" parent="1" vertex="1">
          <mxGeometry x="330" y="579" width="200" height="40" as="geometry" />
        </mxCell>
        <mxCell id="N3yQKXkswgoLwSjcVd0h-14" value="" style="endArrow=none;html=1;rounded=0;entryX=0;entryY=0.5;entryDx=0;entryDy=0;exitX=1;exitY=0.3333333333333333;exitDx=0;exitDy=0;exitPerimeter=0;" parent="1" source="N3yQKXkswgoLwSjcVd0h-1" target="N3yQKXkswgoLwSjcVd0h-11" edge="1">
          <mxGeometry width="50" height="50" relative="1" as="geometry">
            <mxPoint x="170" y="440" as="sourcePoint" />
            <mxPoint x="220" y="390" as="targetPoint" />
          </mxGeometry>
        </mxCell>
        <mxCell id="N3yQKXkswgoLwSjcVd0h-15" value="" style="endArrow=none;html=1;rounded=0;entryX=0;entryY=0.5;entryDx=0;entryDy=0;" parent="1" target="N3yQKXkswgoLwSjcVd0h-12" edge="1">
          <mxGeometry width="50" height="50" relative="1" as="geometry">
            <mxPoint x="160" y="400" as="sourcePoint" />
            <mxPoint x="320" y="440" as="targetPoint" />
          </mxGeometry>
        </mxCell>
        <mxCell id="N3yQKXkswgoLwSjcVd0h-16" value="" style="endArrow=none;html=1;rounded=0;entryX=0;entryY=0.5;entryDx=0;entryDy=0;exitX=1;exitY=0.3333333333333333;exitDx=0;exitDy=0;exitPerimeter=0;" parent="1" source="N3yQKXkswgoLwSjcVd0h-1" target="N3yQKXkswgoLwSjcVd0h-13" edge="1">
          <mxGeometry width="50" height="50" relative="1" as="geometry">
            <mxPoint x="168" y="440" as="sourcePoint" />
            <mxPoint x="218" y="390" as="targetPoint" />
          </mxGeometry>
        </mxCell>
        <mxCell id="N3yQKXkswgoLwSjcVd0h-17" value="" style="endArrow=none;html=1;rounded=0;entryX=0;entryY=0.5;entryDx=0;entryDy=0;" parent="1" target="N3yQKXkswgoLwSjcVd0h-10" edge="1">
          <mxGeometry width="50" height="50" relative="1" as="geometry">
            <mxPoint x="160" y="400" as="sourcePoint" />
            <mxPoint x="220" y="390" as="targetPoint" />
          </mxGeometry>
        </mxCell>
        <mxCell id="N3yQKXkswgoLwSjcVd0h-19" value="" style="endArrow=none;html=1;rounded=0;entryX=0;entryY=0.5;entryDx=0;entryDy=0;" parent="1" target="N3yQKXkswgoLwSjcVd0h-7" edge="1">
          <mxGeometry width="50" height="50" relative="1" as="geometry">
            <mxPoint x="160" y="400" as="sourcePoint" />
            <mxPoint x="210" y="350" as="targetPoint" />
          </mxGeometry>
        </mxCell>
      </root>
    </mxGraphModel>
  </diagram>
</mxfile>
